<svg xmlns="http://www.w3.org/2000/svg" width="28" height="28"><path fill-rule="nonzero" d="m14 27.991-.297-.115C4.162 24.188 3.059 19.368 3.059 16.063V3.441l.851.029c6.632.226 9.456-2.768 9.483-2.797L14 .01l.607.664c.022.024 2.699 2.809 8.774 2.809h.001c.231 0 .467-.004.707-.012l.851-.03v12.623c0 3.305-1.103 8.125-10.644 11.813l-.297.115ZM4.705 5.13v10.934c0 1.778.001 6.47 9.295 10.161 9.295-3.691 9.295-8.383 9.295-10.16V5.128C18.148 5.109 15.187 3.278 14 2.33c-1.187.946-4.149 2.776-9.295 2.798Zm2.919 8.565 1.692-1.372 3.386 2.5s4.676-4.838 9.191-7.096l.645.727s-5.643 4.676-8.545 10.884l-6.37-5.643Z"/></svg>